<svg width="190" height="49" viewBox="0 0 190 49" fill="none" xmlns="http://www.w3.org/2000/svg">
<path d="M0.490234 14.4097C0.490234 10.5415 1.85156 7.24609 4.57422 4.52344C7.31348 1.80078 10.6089 0.439453 14.4604 0.439453C18.312 0.439453 21.6074 1.80078 24.3467 4.52344C27.0693 7.24609 28.4307 10.5415 28.4307 14.4097C28.4307 18.2612 27.0693 21.5483 24.3467 24.271C21.6074 26.9937 18.312 28.355 14.4604 28.355H5.24658V33.6343C5.24658 34.2817 5.01416 34.8379 4.54932 35.3027C4.08447 35.7676 3.52002 36 2.85596 36C2.2085 36 1.65234 35.7676 1.1875 35.3027C0.722656 34.8379 0.490234 34.2817 0.490234 33.6343V14.4097ZM5.24658 23.6235H14.4604C17.0005 23.6235 19.1753 22.7188 20.9849 20.9092C22.7778 19.1162 23.6743 16.9497 23.6743 14.4097C23.6743 11.853 22.7778 9.67822 20.9849 7.88525C19.1753 6.07568 17.0005 5.1709 14.4604 5.1709C11.9204 5.1709 9.74561 6.07568 7.93604 7.88525C6.14307 9.67822 5.24658 11.853 5.24658 14.4097V23.6235ZM44.9907 7.56152C48.9253 7.56152 52.2788 8.94775 55.0513 11.7202C57.8237 14.4927 59.21 17.8462 59.21 21.7808V33.6094C59.21 34.2734 58.9775 34.8379 58.5127 35.3027C58.0479 35.7676 57.4917 36 56.8442 36C56.1802 36 55.624 35.7676 55.1758 35.3027C54.7109 34.8379 54.4785 34.2734 54.4785 33.6094V32.3643C51.7725 34.7881 48.6099 36 44.9907 36C41.0728 36 37.7192 34.6055 34.9302 31.8164C32.1577 29.0439 30.7715 25.6987 30.7715 21.7808C30.7715 17.8462 32.1577 14.4927 34.9302 11.7202C37.7192 8.94775 41.0728 7.56152 44.9907 7.56152ZM51.6895 15.0571C49.8467 13.2144 47.6138 12.293 44.9907 12.293C42.3677 12.293 40.1348 13.2144 38.292 15.0571C36.4326 16.9165 35.5029 19.1577 35.5029 21.7808C35.5029 24.3872 36.4326 26.6201 38.292 28.4795C40.1348 30.3223 42.3677 31.2437 44.9907 31.2437C47.6138 31.2437 49.8467 30.3223 51.6895 28.4795C53.5488 26.6201 54.4785 24.3872 54.4785 21.7808C54.4785 19.1577 53.5488 16.9165 51.6895 15.0571ZM92.6289 33.8584C92.6289 37.7764 91.2427 41.1299 88.4702 43.9189C85.6978 46.6914 82.3442 48.0776 78.4097 48.0776C75.604 48.0776 73.0308 47.314 70.6899 45.7866C68.3325 44.2593 66.5811 42.209 65.4355 39.6357C65.1699 39.0547 65.1533 38.457 65.3857 37.8428C65.6182 37.2285 66.0332 36.7886 66.6309 36.5229C67.2285 36.2573 67.8262 36.2407 68.4238 36.4731C69.0381 36.7056 69.478 37.1206 69.7437 37.7183C70.5073 39.4282 71.6777 40.7979 73.2549 41.8271C74.8154 42.8398 76.5337 43.3462 78.4097 43.3462C81.0327 43.3462 83.2656 42.4165 85.1084 40.5571C86.9678 38.7144 87.8975 36.4814 87.8975 33.8584V32.3643C85.1914 34.7881 82.0288 36 78.4097 36C74.4917 36 71.1382 34.6055 68.3491 31.8164C65.5767 29.0439 64.1904 25.6987 64.1904 21.7808V9.92725C64.1904 9.26318 64.4229 8.69873 64.8877 8.23389C65.3525 7.78564 65.9087 7.56152 66.5562 7.56152C67.2202 7.56152 67.7764 7.78564 68.2246 8.23389C68.6895 8.69873 68.9219 9.26318 68.9219 9.92725V21.7808C68.9219 24.3872 69.8516 26.6201 71.7109 28.4795C73.5537 30.3223 75.7866 31.2437 78.4097 31.2437C81.0327 31.2437 83.2656 30.3223 85.1084 28.4795C86.9678 26.6201 87.8975 24.3872 87.8975 21.7808V9.92725C87.8975 9.26318 88.1299 8.69873 88.5947 8.23389C89.043 7.78564 89.5991 7.56152 90.2632 7.56152C90.9106 7.56152 91.4668 7.78564 91.9316 8.23389C92.3965 8.69873 92.6289 9.26318 92.6289 9.92725V33.8584Z" fill="white"/>
<path d="M111.829 36C107.911 36 104.557 34.6055 101.768 31.8164C98.9956 29.0439 97.6094 25.6987 97.6094 21.7808V2.80518C97.6094 2.15771 97.8418 1.60156 98.3066 1.13672C98.7715 0.671875 99.3276 0.439453 99.9751 0.439453C100.639 0.439453 101.195 0.671875 101.644 1.13672C102.108 1.60156 102.341 2.15771 102.341 2.80518V11.1724C105.047 8.76514 108.209 7.56152 111.829 7.56152C115.763 7.56152 119.117 8.94775 121.889 11.7202C124.662 14.4927 126.048 17.8462 126.048 21.7808C126.048 25.6987 124.662 29.0439 121.889 31.8164C119.117 34.6055 115.763 36 111.829 36ZM105.13 28.4795C106.973 30.3223 109.206 31.2437 111.829 31.2437C114.452 31.2437 116.685 30.3223 118.527 28.4795C120.387 26.6201 121.316 24.3872 121.316 21.7808C121.316 19.1577 120.387 16.9165 118.527 15.0571C116.685 13.2144 114.452 12.293 111.829 12.293C109.206 12.293 106.973 13.2144 105.13 15.0571C103.271 16.9165 102.341 19.1577 102.341 21.7808C102.341 24.3872 103.271 26.6201 105.13 28.4795ZM142.757 12.293C140.134 12.293 137.901 13.2144 136.059 15.0571C134.199 16.9165 133.27 19.1577 133.27 21.7808C133.27 24.3872 134.199 26.6201 136.059 28.4795C137.901 30.3223 140.134 31.2437 142.757 31.2437C145.38 31.2437 147.613 30.3223 149.456 28.4795C151.315 26.6201 152.245 24.3872 152.245 21.7808C152.245 19.1577 151.315 16.9165 149.456 15.0571C147.613 13.2144 145.38 12.293 142.757 12.293ZM132.697 11.7202C135.486 8.94775 138.839 7.56152 142.757 7.56152C146.692 7.56152 150.045 8.94775 152.818 11.7202C155.59 14.4927 156.977 17.8462 156.977 21.7808C156.977 25.6987 155.59 29.0439 152.818 31.8164C150.045 34.6055 146.692 36 142.757 36C138.839 36 135.486 34.6055 132.697 31.8164C129.924 29.0439 128.538 25.6987 128.538 21.7808C128.538 17.8462 129.924 14.4927 132.697 11.7202ZM160.712 9.92725C160.712 9.26318 160.944 8.69873 161.409 8.23389C161.874 7.78564 162.43 7.56152 163.078 7.56152C163.742 7.56152 164.298 7.78564 164.746 8.23389C165.211 8.69873 165.443 9.26318 165.443 9.92725V10.002C165.443 12.625 166.373 14.8579 168.232 16.7007C170.075 18.5435 172.3 19.4731 174.906 19.4897H174.956C177.562 19.4731 179.787 18.5435 181.63 16.7007C183.489 14.8579 184.419 12.625 184.419 10.002V9.92725C184.419 9.26318 184.651 8.69873 185.116 8.23389C185.564 7.78564 186.121 7.56152 186.785 7.56152C187.432 7.56152 187.988 7.78564 188.453 8.23389C188.918 8.69873 189.15 9.26318 189.15 9.92725V10.002C189.15 13.9199 187.764 17.2734 184.992 20.0625C184.361 20.6768 183.68 21.2329 182.95 21.731C187.083 24.3208 189.15 28.2554 189.15 33.5347V33.6094C189.15 34.2734 188.918 34.8379 188.453 35.3027C187.988 35.7676 187.432 36 186.785 36C186.121 36 185.564 35.7676 185.116 35.3027C184.651 34.8379 184.419 34.2734 184.419 33.6094V33.5347C184.419 31.3931 183.888 29.5586 182.825 28.0312C181.862 26.6367 180.551 25.6157 178.891 24.9683C177.662 24.4702 176.351 24.2212 174.956 24.2212H174.906C173.545 24.2212 172.267 24.4536 171.071 24.9185L170.972 24.9683C169.312 25.6157 168 26.6367 167.037 28.0312C165.975 29.5586 165.443 31.3931 165.443 33.5347V33.6094C165.443 34.2734 165.211 34.8379 164.746 35.3027C164.298 35.7676 163.742 36 163.078 36C162.43 36 161.874 35.7676 161.409 35.3027C160.944 34.8379 160.712 34.2734 160.712 33.6094V33.5347C160.712 28.2554 162.779 24.3208 166.913 21.731C166.182 21.2329 165.501 20.6768 164.871 20.0625C162.098 17.2734 160.712 13.9199 160.712 10.002V9.92725Z" fill="#00A3FF"/>
</svg>
