<svg width="231" height="50" viewBox="0 0 231 50" fill="none" xmlns="http://www.w3.org/2000/svg">
<path d="M20.951 4.3H25.051L14.719 33H9.389L0.123 4.3H4.223L10.127 22.873C10.5097 24.1303 10.8513 25.4697 11.152 26.891C11.48 28.285 11.685 29.187 11.767 29.597H12.505C12.587 29.187 12.8057 28.285 13.161 26.891C13.5437 25.4697 13.9537 24.1303 14.391 22.873L20.951 4.3ZM35.8856 33.492C33.3709 33.492 31.5259 32.795 30.3506 31.401C29.1752 29.9797 28.5876 27.8203 28.5876 24.923V11.844H32.6876V24.882C32.6876 26.686 32.9746 28.1073 33.5486 29.146C34.1499 30.1847 35.2159 30.704 36.7466 30.704C38.7419 30.704 40.4776 30.1847 41.9536 29.146V11.844H46.0536V28.859L46.9966 33.328H44.9876C44.6322 33.328 44.3042 33.246 44.0036 33.082C43.7302 32.9453 43.4842 32.672 43.2656 32.262L42.6916 31.196H42.0356C41.1882 32.098 40.3272 32.6993 39.4526 33C38.5779 33.328 37.3889 33.492 35.8856 33.492ZM57.1905 26.727C56.6438 27.3557 56.0562 27.998 55.4275 28.654C54.7988 29.31 54.3888 29.7337 54.1975 29.925L54.4845 30.54C54.7305 30.4853 55.2635 30.376 56.0835 30.212C56.9035 30.048 57.6142 29.966 58.2155 29.966H67.8505V33H49.9335V29.966L60.1835 18.117C60.7302 17.4883 61.3315 16.846 61.9875 16.19C62.6435 15.5067 63.0672 15.0693 63.2585 14.878L62.8895 14.222C62.7802 14.2493 62.5342 14.3177 62.1515 14.427C61.7688 14.5363 61.2768 14.6457 60.6755 14.755C60.1015 14.837 59.5138 14.878 58.9125 14.878H51.1635V11.844H67.4405V14.878L57.1905 26.727ZM79.1678 33.492C76.6531 33.492 74.8081 32.795 73.6328 31.401C72.4575 29.9797 71.8698 27.8203 71.8698 24.923V11.844H75.9698V24.882C75.9698 26.686 76.2568 28.1073 76.8308 29.146C77.4321 30.1847 78.4981 30.704 80.0288 30.704C82.0241 30.704 83.7598 30.1847 85.2358 29.146V11.844H89.3358V28.859L90.2788 33.328H88.2698C87.9145 33.328 87.5865 33.246 87.2858 33.082C87.0125 32.9453 86.7665 32.672 86.5478 32.262L85.9738 31.196H85.3178C84.4705 32.098 83.6095 32.6993 82.7348 33C81.8601 33.328 80.6711 33.492 79.1678 33.492ZM112.527 27.957C112.527 28.8863 112.622 29.556 112.814 29.966C113.005 30.3487 113.429 30.6357 114.085 30.827L113.511 33.287C113.483 33.3143 113.374 33.3553 113.183 33.41C113.019 33.4647 112.786 33.492 112.486 33.492C111.693 33.4647 111.092 33.328 110.682 33.082C110.272 32.8633 109.875 32.4123 109.493 31.729L108.878 30.622H108.222C107.484 31.606 106.636 32.3303 105.68 32.795C104.723 33.2597 103.561 33.492 102.195 33.492C100.09 33.492 98.4227 32.9453 97.1927 31.852C95.9627 30.7313 95.3477 29.1323 95.3477 27.055C95.3477 24.923 96.0311 23.3377 97.3977 22.299C98.7644 21.2603 100.896 20.6317 103.794 20.413L108.468 20.044V18.691C108.468 17.051 108.112 15.8893 107.402 15.206C106.691 14.4953 105.379 14.14 103.466 14.14C102.072 14.14 100.145 14.4407 97.6847 15.042L96.9467 12.623C97.8761 12.2677 99.0514 11.967 100.473 11.721C101.894 11.475 103.124 11.352 104.163 11.352C106.923 11.352 109.001 11.9123 110.395 13.033C111.816 14.1263 112.527 15.8893 112.527 18.322V27.957ZM104.532 22.873C101.197 23.119 99.5297 24.4447 99.5297 26.85C99.5297 29.4193 100.814 30.704 103.384 30.704C104.832 30.704 106.035 30.3623 106.992 29.679C107.976 28.9683 108.468 27.8203 108.468 26.235V22.586L104.532 22.873ZM123.656 2.66V33H119.556V2.66H123.656Z" fill="white"/>
<path d="M149.555 19.552C149.965 19.6067 150.375 19.6477 150.785 19.675C151.195 19.7023 151.591 19.716 151.974 19.716C152.903 19.716 153.764 19.5793 154.557 19.306C155.377 19.0327 156.074 18.6227 156.648 18.076C157.249 17.5293 157.714 16.8597 158.042 16.067C158.37 15.2743 158.534 14.345 158.534 13.279C158.534 11.147 157.891 9.548 156.607 8.482C155.349 7.416 153.696 6.883 151.646 6.883H149.555V19.552ZM140.74 33V31.114L144.512 30.212V7.088L140.74 6.186V4.3H151.646C159.682 4.3 163.7 7.293 163.7 13.279C163.7 16.313 162.647 18.5817 160.543 20.085C158.465 21.561 155.718 22.299 152.302 22.299C151.345 22.299 150.429 22.2307 149.555 22.094V30.212L154.557 31.114V33H140.74ZM165.221 33V31.237L168.706 30.417V3.521H165.221V1.758L171.781 0.2H173.626V30.417L177.111 31.237V33H165.221ZM178.507 14.263V12.5H186.871V26.645C186.871 29.3783 188.046 30.745 190.397 30.745C192.255 30.745 194.005 30.048 195.645 28.654V15.083L192.98 14.263V12.5H200.524V30.335H203.722V31.688C203.066 32.262 202.328 32.7267 201.508 33.082C200.715 33.4373 199.922 33.615 199.13 33.615C198.501 33.615 197.941 33.492 197.449 33.246C196.984 33.0273 196.629 32.7403 196.383 32.385C196.137 32.0297 195.959 31.7427 195.85 31.524C195.74 31.278 195.672 31.073 195.645 30.909C193.485 32.713 191.162 33.615 188.675 33.615C186.488 33.615 184.821 33.0273 183.673 31.852C182.552 30.6767 181.992 29.1187 181.992 27.178V15.083L178.507 14.263ZM206.529 32.672V26.809H208.415L209.973 31.114C210.929 31.278 211.995 31.36 213.171 31.36C214.92 31.36 216.15 31.1413 216.861 30.704C217.599 30.2393 217.968 29.4603 217.968 28.367C217.968 27.5197 217.571 26.8227 216.779 26.276C215.986 25.702 214.619 25.0323 212.679 24.267C210.847 23.5017 209.426 22.5997 208.415 21.561C207.403 20.495 206.898 19.1557 206.898 17.543C206.898 15.7117 207.663 14.3177 209.194 13.361C210.752 12.377 212.774 11.885 215.262 11.885C217.421 11.885 219.375 12.1447 221.125 12.664V18.24H219.403L218.05 14.386C217.257 14.1673 216.328 14.058 215.262 14.058C213.786 14.058 212.747 14.2903 212.146 14.755C211.572 15.1923 211.285 15.862 211.285 16.764C211.285 17.2833 211.476 17.748 211.859 18.158C212.241 18.568 212.665 18.9097 213.13 19.183C213.622 19.429 214.401 19.7843 215.467 20.249C217.954 21.2877 219.731 22.34 220.797 23.406C221.89 24.4447 222.437 25.7977 222.437 27.465C222.437 29.4603 221.63 30.991 220.018 32.057C218.405 33.0957 216.3 33.615 213.704 33.615C211.134 33.615 208.743 33.3007 206.529 32.672Z" fill="#FF0000"/>
<path d="M142.935 38.3H145.3C146.503 38.3 147.394 38.6337 147.973 39.301C148.56 39.9683 148.853 40.918 148.853 42.15C148.853 43.3747 148.567 44.3243 147.995 44.999C147.423 45.6663 146.525 46 145.3 46H142.935V38.3ZM145.333 45.12C146.198 45.12 146.807 44.8597 147.159 44.339C147.518 43.811 147.698 43.0813 147.698 42.15C147.698 41.2113 147.515 40.4743 147.148 39.939C146.789 39.4037 146.176 39.136 145.311 39.136H144.035V45.12H145.333ZM150.729 41.017C151.154 40.467 151.774 40.192 152.588 40.192C154.172 40.192 154.964 41.127 154.964 42.997V43.404H151.257C151.257 44.702 151.774 45.351 152.808 45.351C153.116 45.351 153.398 45.329 153.655 45.285C153.919 45.2337 154.212 45.153 154.535 45.043L154.755 45.703C154.102 45.989 153.413 46.132 152.687 46.132C151.836 46.132 151.191 45.8643 150.751 45.329C150.311 44.7937 150.091 44.0713 150.091 43.162C150.091 42.2747 150.304 41.5597 150.729 41.017ZM151.565 41.402C151.382 41.71 151.279 42.15 151.257 42.722H153.864C153.864 42.1573 153.772 41.721 153.589 41.413C153.406 41.0977 153.068 40.94 152.577 40.94C152.093 40.94 151.756 41.094 151.565 41.402ZM160.256 44.405C160.256 44.9917 160.058 45.428 159.662 45.714C159.266 45.9927 158.767 46.132 158.166 46.132C157.484 46.132 156.802 45.9633 156.12 45.626L156.406 44.944C156.736 45.0833 157.022 45.1933 157.264 45.274C157.506 45.3473 157.766 45.384 158.045 45.384C158.39 45.384 158.665 45.3217 158.87 45.197C159.083 45.065 159.189 44.8523 159.189 44.559C159.189 44.3537 159.13 44.1887 159.013 44.064C158.896 43.9393 158.657 43.8037 158.298 43.657L157.605 43.382C157.224 43.2353 156.923 43.041 156.703 42.799C156.483 42.557 156.373 42.2417 156.373 41.853C156.373 41.3397 156.567 40.9363 156.956 40.643C157.345 40.3423 157.832 40.192 158.419 40.192C158.932 40.192 159.497 40.3093 160.113 40.544L159.882 41.237C159.361 41.039 158.863 40.94 158.386 40.94C157.711 40.94 157.374 41.1967 157.374 41.71C157.374 41.9153 157.444 42.0767 157.583 42.194C157.722 42.304 157.972 42.436 158.331 42.59L159.079 42.92C159.482 43.096 159.779 43.2977 159.97 43.525C160.161 43.745 160.256 44.0383 160.256 44.405ZM161.762 38.399C161.762 38.2083 161.828 38.047 161.96 37.915C162.092 37.783 162.254 37.717 162.444 37.717C162.635 37.717 162.796 37.783 162.928 37.915C163.06 38.047 163.126 38.2083 163.126 38.399C163.126 38.5897 163.06 38.751 162.928 38.883C162.796 39.015 162.635 39.081 162.444 39.081C162.254 39.081 162.092 39.015 161.96 38.883C161.828 38.751 161.762 38.5897 161.762 38.399ZM161.894 40.324H162.994V46H161.894V40.324ZM168.337 46.187C168.344 46.0037 168.366 45.824 168.403 45.648C168.447 45.4647 168.476 45.3473 168.491 45.296L168.315 45.197C168.139 45.505 167.908 45.7397 167.622 45.901C167.336 46.055 167.031 46.132 166.709 46.132C166.005 46.132 165.451 45.8717 165.048 45.351C164.644 44.823 164.443 44.097 164.443 43.173C164.443 42.2343 164.666 41.5047 165.114 40.984C165.561 40.456 166.214 40.192 167.072 40.192C167.614 40.192 168.395 40.302 169.415 40.522V46.253C169.415 46.7003 169.305 47.0853 169.085 47.408C168.865 47.738 168.568 47.9873 168.194 48.156C167.82 48.332 167.405 48.42 166.951 48.42C166.122 48.42 165.363 48.255 164.674 47.925L164.927 47.221C164.993 47.2503 165.139 47.309 165.367 47.397C165.594 47.485 165.814 47.551 166.027 47.595C166.247 47.6463 166.463 47.672 166.676 47.672C167.196 47.672 167.596 47.5363 167.875 47.265C168.161 46.9937 168.315 46.6343 168.337 46.187ZM167.006 45.384C167.365 45.384 167.673 45.2887 167.93 45.098C168.186 44.9073 168.315 44.5993 168.315 44.174V41.072C168.029 41.0133 167.816 40.9767 167.677 40.962C167.545 40.9473 167.347 40.94 167.083 40.94C166.547 40.94 166.166 41.1343 165.939 41.523C165.719 41.9117 165.609 42.4617 165.609 43.173C165.609 43.6423 165.642 44.0347 165.708 44.35C165.774 44.6653 165.906 44.9183 166.104 45.109C166.309 45.2923 166.61 45.384 167.006 45.384ZM171.549 40.236C171.645 40.236 171.729 40.258 171.802 40.302C171.883 40.3387 171.953 40.412 172.011 40.522L172.165 40.808H172.341C172.569 40.566 172.789 40.4047 173.001 40.324C173.214 40.236 173.504 40.192 173.87 40.192C174.64 40.192 175.201 40.3753 175.553 40.742C175.905 41.1087 176.081 41.6917 176.081 42.491V46H174.981V42.502C174.981 42.0033 174.897 41.6183 174.728 41.347C174.56 41.0757 174.233 40.94 173.749 40.94C173.441 40.94 173.177 40.9767 172.957 41.05C172.745 41.116 172.547 41.2187 172.363 41.358V46H171.263V41.435L171.01 40.236H171.549ZM180.947 44.724C181.329 44.8927 181.688 45.0247 182.025 45.12C182.363 45.2153 182.729 45.263 183.125 45.263C183.499 45.263 183.811 45.1603 184.06 44.955C184.317 44.7497 184.445 44.471 184.445 44.119C184.445 43.8183 184.339 43.558 184.126 43.338C183.921 43.118 183.631 42.92 183.257 42.744L182.135 42.216C181.695 42.0107 181.354 41.7577 181.112 41.457C180.878 41.1563 180.76 40.7677 180.76 40.291C180.76 39.851 180.881 39.4697 181.123 39.147C181.373 38.8243 181.692 38.5823 182.08 38.421C182.476 38.2523 182.894 38.168 183.334 38.168C183.767 38.168 184.13 38.2083 184.423 38.289C184.724 38.3623 185.065 38.476 185.446 38.63L185.149 39.411C184.438 39.147 183.826 39.015 183.312 39.015C182.403 39.015 181.948 39.3633 181.948 40.06C181.948 40.3167 182.022 40.533 182.168 40.709C182.322 40.8777 182.561 41.039 182.883 41.193L184.203 41.842C185.179 42.326 185.666 42.9933 185.666 43.844C185.666 44.372 185.538 44.8083 185.281 45.153C185.032 45.4977 184.713 45.747 184.324 45.901C183.936 46.055 183.529 46.132 183.103 46.132C182.663 46.132 182.238 46.0807 181.827 45.978C181.424 45.8753 181.013 45.7323 180.595 45.549L180.947 44.724ZM187.436 39.576C187.473 39.3633 187.539 39.2057 187.634 39.103C187.729 39.0003 187.865 38.949 188.041 38.949H188.393V40.324H190.021V41.083H188.393V44.405C188.393 44.713 188.448 44.9477 188.558 45.109C188.675 45.2703 188.921 45.351 189.295 45.351C189.522 45.351 189.783 45.3217 190.076 45.263L190.219 45.989C190.138 46.0183 189.981 46.0477 189.746 46.077C189.519 46.1137 189.328 46.132 189.174 46.132C188.477 46.132 187.99 45.9817 187.711 45.681C187.432 45.373 187.293 44.878 187.293 44.196V41.083H186.457V40.698L187.293 40.324L187.436 39.576ZM193.415 46.132C192.74 46.132 192.245 45.945 191.93 45.571C191.615 45.1897 191.457 44.6103 191.457 43.833V40.324H192.557V43.822C192.557 44.306 192.634 44.6873 192.788 44.966C192.949 45.2447 193.235 45.384 193.646 45.384C194.181 45.384 194.647 45.2447 195.043 44.966V40.324H196.143V44.889L196.396 46.088H195.857C195.762 46.088 195.674 46.066 195.593 46.022C195.52 45.9853 195.454 45.912 195.395 45.802L195.241 45.516H195.065C194.838 45.758 194.607 45.9193 194.372 46C194.137 46.088 193.818 46.132 193.415 46.132ZM200.022 46.132C199.245 46.132 198.658 45.8753 198.262 45.362C197.873 44.8487 197.679 44.1227 197.679 43.184C197.679 42.2453 197.906 41.512 198.361 40.984C198.816 40.456 199.465 40.192 200.308 40.192C200.484 40.192 200.664 40.214 200.847 40.258C201.038 40.2947 201.192 40.335 201.309 40.379C201.434 40.4157 201.514 40.4413 201.551 40.456V37.86H202.651V44.867L202.915 46.088H202.387C202.182 46.088 202.024 45.9927 201.914 45.802L201.76 45.516H201.584C201.415 45.7507 201.21 45.912 200.968 46C200.726 46.088 200.411 46.132 200.022 46.132ZM198.845 43.173C198.845 43.8697 198.948 44.4123 199.153 44.801C199.366 45.1897 199.751 45.384 200.308 45.384C200.565 45.384 200.799 45.3437 201.012 45.263C201.225 45.175 201.404 45.0687 201.551 44.944V41.16C201.522 41.1453 201.452 41.1233 201.342 41.094C201.239 41.0573 201.096 41.0243 200.913 40.995C200.73 40.9583 200.528 40.94 200.308 40.94C199.773 40.94 199.395 41.1343 199.175 41.523C198.955 41.9117 198.845 42.4617 198.845 43.173ZM204.301 38.399C204.301 38.2083 204.367 38.047 204.499 37.915C204.631 37.783 204.793 37.717 204.983 37.717C205.174 37.717 205.335 37.783 205.467 37.915C205.599 38.047 205.665 38.2083 205.665 38.399C205.665 38.5897 205.599 38.751 205.467 38.883C205.335 39.015 205.174 39.081 204.983 39.081C204.793 39.081 204.631 39.015 204.499 38.883C204.367 38.751 204.301 38.5897 204.301 38.399ZM204.433 40.324H205.533V46H204.433V40.324ZM212.295 43.162C212.295 44.108 212.075 44.8413 211.635 45.362C211.195 45.8753 210.527 46.132 209.633 46.132C208.745 46.132 208.082 45.8753 207.642 45.362C207.202 44.8413 206.982 44.108 206.982 43.162C206.982 42.216 207.202 41.4863 207.642 40.973C208.082 40.4523 208.745 40.192 209.633 40.192C210.527 40.192 211.195 40.4523 211.635 40.973C212.075 41.4863 212.295 42.216 212.295 43.162ZM209.644 45.384C210.634 45.384 211.129 44.6433 211.129 43.162C211.129 41.6807 210.634 40.94 209.644 40.94C209.108 40.94 208.723 41.1453 208.489 41.556C208.261 41.9593 208.148 42.4947 208.148 43.162C208.148 43.8293 208.261 44.3683 208.489 44.779C208.723 45.1823 209.108 45.384 209.644 45.384ZM217.641 44.405C217.641 44.9917 217.443 45.428 217.047 45.714C216.651 45.9927 216.152 46.132 215.551 46.132C214.869 46.132 214.187 45.9633 213.505 45.626L213.791 44.944C214.121 45.0833 214.407 45.1933 214.649 45.274C214.891 45.3473 215.151 45.384 215.43 45.384C215.774 45.384 216.049 45.3217 216.255 45.197C216.467 45.065 216.574 44.8523 216.574 44.559C216.574 44.3537 216.515 44.1887 216.398 44.064C216.28 43.9393 216.042 43.8037 215.683 43.657L214.99 43.382C214.608 43.2353 214.308 43.041 214.088 42.799C213.868 42.557 213.758 42.2417 213.758 41.853C213.758 41.3397 213.952 40.9363 214.341 40.643C214.729 40.3423 215.217 40.192 215.804 40.192C216.317 40.192 216.882 40.3093 217.498 40.544L217.267 41.237C216.746 41.039 216.247 40.94 215.771 40.94C215.096 40.94 214.759 41.1967 214.759 41.71C214.759 41.9153 214.828 42.0767 214.968 42.194C215.107 42.304 215.356 42.436 215.716 42.59L216.464 42.92C216.867 43.096 217.164 43.2977 217.355 43.525C217.545 43.745 217.641 44.0383 217.641 44.405Z" fill="white"/>
</svg>
